<?xml version="1.0" encoding="UTF-8" standalone="no"?>
<!-- Created with Inkscape (http://www.inkscape.org/) -->

<svg
   xmlns:dc="http://purl.org/dc/elements/1.1/"
   xmlns:cc="http://creativecommons.org/ns#"
   xmlns:rdf="http://www.w3.org/1999/02/22-rdf-syntax-ns#"
   xmlns:svg="http://www.w3.org/2000/svg"
   xmlns="http://www.w3.org/2000/svg"
   xmlns:sodipodi="http://sodipodi.sourceforge.net/DTD/sodipodi-0.dtd"
   xmlns:inkscape="http://www.inkscape.org/namespaces/inkscape"
   width="210mm"
   height="297mm"
   viewBox="0 0 744.09448819 1052.3622047"
   id="svg4166"
   version="1.1"
   inkscape:version="0.91 r13725"
   sodipodi:docname="budzi.svg">
  <defs
     id="defs4168" />
  <sodipodi:namedview
     id="base"
     pagecolor="#ffffff"
     bordercolor="#666666"
     borderopacity="1.0"
     inkscape:pageopacity="0.0"
     inkscape:pageshadow="2"
     inkscape:zoom="1.979899"
     inkscape:cx="442.61018"
     inkscape:cy="446.11547"
     inkscape:document-units="px"
     inkscape:current-layer="layer1"
     showgrid="false"
     inkscape:window-width="1855"
     inkscape:window-height="1056"
     inkscape:window-x="65"
     inkscape:window-y="24"
     inkscape:window-maximized="1" />
  <metadata
     id="metadata4171">
    <rdf:RDF>
      <cc:Work
         rdf:about="">
        <dc:format>image/svg+xml</dc:format>
        <dc:type
           rdf:resource="http://purl.org/dc/dcmitype/StillImage" />
        <dc:title></dc:title>
      </cc:Work>
    </rdf:RDF>
  </metadata>
  <g
     inkscape:label="Calque 1"
     inkscape:groupmode="layer"
     id="layer1">
    <path
       style="fill:#000000;fill-opacity:1;stroke:none;stroke-width:1;stroke-miterlimit:4;stroke-dasharray:none;stroke-opacity:1"
       d="m 491.78691,505.09353 c -5.37092,-1.04485 -19.00931,9.55749 -23.72062,26.64576 6.04771,0.39576 10.5162,3.18129 11.57666,7.21554 1.54608,5.95476 -4.6868,12.71963 -13.91679,15.1046 -9.22781,2.38415 -17.95294,-0.51376 -19.4835,-6.47087 -0.68894,-2.69985 0.21604,-5.70468 2.53511,-8.42105 -3.04759,1.53945 -5.89757,3.24428 -8.49186,5.14128 -8.10526,-13.01145 -29.41523,-23.25098 -36.41419,-24.19934 -1.1732,-0.15885 -1.92622,-0.0726 -2.16286,0.3195 -4.81541,7.99281 22.81256,18.61375 30.95377,30.61702 -9.47443,10.34265 -13.22176,23.19089 -9.78604,33.73713 2.48182,7.61802 10.60451,13.81667 20.77769,16.80662 3.30465,0.97141 2.42001,2.6679 0,3.88248 -2.77283,1.39168 -5.44663,2.98759 -7.69417,5.17668 -23.90697,-4.60891 -58.99847,-23.05682 -60.80851,-30.29787 -3.76176,-15.04768 -7.53605,-26.43608 -11.89571,-14.51959 -3.26979,8.93717 -9.4915,-9.69201 -18.77441,-10.17608 -3.09433,-0.16157 -6.51298,1.6934 -10.30025,7.25094 -8.49367,12.46402 3.97189,29.04943 24.11066,29.96103 19.57018,0.88591 53.06105,33.34274 64.76197,46.12935 1.2135,1.32623 2.75277,4.11458 1.18781,5.21217 -18.70043,13.11384 -35.7051,18.7833 -35.7051,27.99314 0,11.04457 30.52035,27.03371 27.90455,30.81199 -1.87176,2.70357 -25.58648,-4.08326 -18.02983,10.15848 1.60245,3.01999 3.7231,5.30638 6.24041,6.82541 -19.32801,2.54681 -42.23842,-7.92391 -58.76964,-26.84082 -5.21172,-5.99742 -9.04119,-16.32345 -14.34232,-14.00547 -5.30094,2.31798 0.64356,60.26371 56.94364,94.98887 8.20556,5.06103 16.60465,8.76298 24.92622,11.16892 0.64355,13.55833 2.20633,16.83992 -6.36449,21.20322 -11.30353,5.75442 -28.97872,19.96076 -17.67528,23.45466 11.30344,3.49381 35.77327,6.36249 42.76099,1.2233 6.98753,-5.13792 8.4176,-14.58267 1.22321,-24.4475 -3.24002,-4.44335 -3.36165,-11.66534 -2.5529,-18.27799 13.04404,0.98312 25.46494,-1.29356 36.21923,-6.52406 8.51663,16.56962 7.73665,23.26695 7.21545,26.22032 -0.61542,3.49381 1.81448,6.95177 14.60827,7.81826 12.74213,0.86321 22.5948,0.20695 30.86518,-0.0545 8.01531,-0.2478 20.14221,-11.9174 7.60549,-18.08301 -12.53655,-6.16552 -19.15011,2.71246 -24.28793,-2.83655 -4.66665,-5.0398 -15.52241,-14.00973 -18.26029,-26.07854 5.39988,-5.72229 9.86329,-12.6107 13.03033,-20.63582 2.5036,-6.34361 4.04741,-13.20179 4.71575,-20.38775 6.05768,-0.19152 10.44221,-5.06711 10.12298,-8.89968 -0.58093,-6.97554 -5.68472,-4.63841 -6.96729,-9.62647 -2.61589,-10.17254 19.29606,-29.93634 16.55836,-35.13779 -2.16867,-4.12021 -17.78575,-14.56189 -27.6209,-32.47843 -1.48172,-2.69949 -3.21778,-6.7066 -1.2587,-9.02377 13.5764,-16.05413 54.1669,-38.51696 65.38239,-37.74388 7.87934,0.54281 12.39004,-0.885 18.43756,-5.6376 16.01774,-12.58801 1.0965,-28.97155 -6.70133,-25.28077 -4.77376,2.25953 -7.80446,4.73463 -10.79659,3.29757 -2.3905,-1.1486 0.2351,-7.30223 -3.59892,-8.01332 -2.38134,-0.44114 -7.18277,10.45838 -10.01651,21.57556 -3.35112,13.14633 -49.90826,25.84699 -71.78236,26.22032 -1.62804,-0.9401 -3.37018,-1.69067 -5.14128,-2.34013 -2.21995,-0.8142 -2.82502,-2.37943 0,-3.26207 6.45544,-2.01699 14.017,-5.24721 18.89849,-9.20104 12.72462,-10.3067 21.48878,-18.85338 25.17439,-30.26247 1.27068,-3.9335 2.74514,-6.30694 -0.44296,-10.52718 -2.97651,-3.93985 -14.69232,1.21722 -25.65301,7.94233 -10.96088,6.72521 -17.87942,14.55962 -33.96769,8.93518 -7.64579,-2.67299 -11.20423,-10.57148 -0.86866,-5.46388 13.65809,6.74963 22.95752,-2.82166 35.08451,-9.94561 12.12717,-7.12405 28.75388,-11.74994 29.88351,-5.61437 1.51467,8.22644 6.152,8.89587 3.46368,-3.33851 -1.18082,-5.37364 -8.13722,-12.05746 -34.94274,-11.98439 -3.14915,0.009 -6.75987,0.18608 -10.47752,0.39031 5.79118,-15.47239 20.60804,-21.72986 18.27808,-26.11394 -0.36671,-0.69167 -0.96797,-1.12019 -1.77291,-1.2764 z m -23.827,28.2414 c -1.23374,-0.008 -2.4997,0.17882 -3.72291,0.54916 -5.05096,1.51666 -8.24151,5.75478 -7.12686,9.46699 1.11855,3.71075 6.11841,5.48847 11.16892,3.97116 5.05096,-1.51667 8.24151,-5.75479 7.12686,-9.46699 -0.80876,-2.70366 -3.74243,-4.48456 -7.44601,-4.52068 z m 20.31686,128.65511 c 6.61573,3.87123 11.18144,9.28018 10.40654,12.534 -0.35309,1.48354 -1.52937,4.75169 -2.90744,8.84649 -2.51858,-6.51825 -6.51008,-12.44042 -9.43159,-18.96938 -0.42026,-0.93883 1.03859,-2.93422 1.93249,-2.41111 z m -53.75263,6.43547 c 2.22539,9.78876 2.02506,19.1639 -0.54916,27.24856 -5.43047,-9.62793 -19.33564,-17.64832 -16.94831,-20.86638 3.01845,-4.06892 10.83326,-5.67228 17.49792,-6.38218 z"
       id="path4151-2-3-7"
       inkscape:connector-curvature="0"
       sodipodi:nodetypes="ccccccccccscsccccssccssscccscsscccccccsccccccccccsccccccssssssssssccccccccccccccccccc" />
  </g>
</svg>
